# xmcd
#
# Track frame offsets:
#	150
#	17759
#	36362
#	56035
#	75926
#	89527
#	103890
#	120769
#	136597
#	154688
#
# Disc length: 2286 seconds
#
# Revision: 2
# Processed by: cddbd v1.5.2PL0 Copyright (c) Steve Scherf et al.
# Submitted via: audiograbber 1.83.01
#
DISCID=7008ec0a
DTITLE=Lucy Kaplansky - Over The Hills
DYEAR=2007
DGENRE=Folk
TTITLE0=Manhattan Moon
TTITLE1=Amelia
TTITLE2=More Than This
TTITLE3=Ring Of Fire
TTITLE4=Swimming Song
TTITLE5=Today's The Day
TTITLE6=Over The Hills
TTITLE7=Somewhere Trouble Don't Go
TTITLE8=Someday Soon
TTITLE9=The Gift
EXTD=
EXTT0=
EXTT1=
EXTT2=
EXTT3=
EXTT4=
EXTT5=
EXTT6=
EXTT7=
EXTT8=
EXTT9=
PLAYORDER=
